<svg width="240" height="240" viewBox="0 0 240 240" fill="none" xmlns="http://www.w3.org/2000/svg">
  <rect width="240" height="240" rx="24" fill="#272727"/>
  <path
    d="M180.006 157.421C176.481 148.699 170.708 143.272 162.685 141.142C154.621 138.909 141.548 138.461 123.467 139.798C105.344 141.033 90.5974 141.022 79.2276 139.767C48.2226 136.298 28.0144 122.917 18.6029 99.6223C13.7105 87.5134 12.7436 75.3703 15.702 63.1931C18.7216 50.8718 25.5158 39.4725 36.0845 28.9953C46.7558 18.4766 60.0443 10.0041 75.9501 3.5777C91.9585 -2.89012 107.404 -5.7285 122.287 -4.93744C137.128 -4.24899 150.121 -0.00886697 161.267 7.78294C172.516 15.5333 180.856 26.13 186.287 39.5729L140.109 58.2301C135.963 47.9683 129.517 41.3214 120.772 38.2894C111.985 35.1548 101.742 35.9507 90.044 40.6772C78.756 45.2379 70.9565 51.1942 66.6455 58.5464C62.2929 65.7959 61.6922 73.3201 64.8432 81.1191C67.7869 88.405 73.8967 93.0389 83.1727 95.0209C92.5513 96.9614 105.243 97.2051 121.248 95.7521C150.711 93.0398 173.809 95.1075 190.542 101.955C207.274 108.803 219.165 120.949 226.213 138.394C234.049 157.789 232.869 175.992 222.672 193.004C212.434 209.913 194.898 223.384 170.065 233.417C152.825 240.383 135.86 243.596 119.169 243.058C102.438 242.417 88.108 238.12 76.1806 230.167C64.3558 222.172 55.5205 210.939 49.6746 196.47L96.0066 177.751C105.999 202.482 125.772 208.877 155.326 196.936C166.306 192.5 173.983 186.832 178.357 179.932C182.69 172.929 183.239 165.425 180.006 157.421Z"
    fill="white"/>
  <path
    d="M76.2441 129.068H59.7207L56.2637 139H48.5586L64.6719 96.3438H71.3223L87.4648 139H79.7305L76.2441 129.068ZM61.8008 123.092H74.1641L67.9824 105.396L61.8008 123.092ZM124.232 125.113C123.803 129.664 122.123 133.219 119.193 135.777C116.264 138.316 112.367 139.586 107.504 139.586C104.105 139.586 101.107 138.785 98.5098 137.184C95.9316 135.562 93.9395 133.268 92.5332 130.299C91.127 127.33 90.3945 123.883 90.3359 119.957V115.973C90.3359 111.949 91.0488 108.404 92.4746 105.338C93.9004 102.271 95.9414 99.9082 98.5977 98.248C101.273 96.5879 104.359 95.7578 107.855 95.7578C112.562 95.7578 116.352 97.0371 119.223 99.5957C122.094 102.154 123.764 105.768 124.232 110.436H116.85C116.498 107.369 115.6 105.162 114.154 103.814C112.729 102.447 110.629 101.764 107.855 101.764C104.633 101.764 102.152 102.945 100.414 105.309C98.6953 107.652 97.8164 111.1 97.7773 115.65V119.43C97.7773 124.039 98.5977 127.555 100.238 129.977C101.898 132.398 104.32 133.609 107.504 133.609C110.414 133.609 112.602 132.955 114.066 131.646C115.531 130.338 116.459 128.16 116.85 125.113H124.232ZM153.178 128.014C153.178 126.139 152.514 124.693 151.186 123.678C149.877 122.662 147.504 121.637 144.066 120.602C140.629 119.566 137.895 118.414 135.863 117.145C131.977 114.703 130.033 111.52 130.033 107.594C130.033 104.156 131.43 101.324 134.223 99.0977C137.035 96.8711 140.678 95.7578 145.15 95.7578C148.119 95.7578 150.766 96.3047 153.09 97.3984C155.414 98.4922 157.24 100.055 158.568 102.086C159.896 104.098 160.561 106.334 160.561 108.795H153.178C153.178 106.568 152.475 104.83 151.068 103.58C149.682 102.311 147.689 101.676 145.092 101.676C142.67 101.676 140.785 102.193 139.438 103.229C138.109 104.264 137.445 105.709 137.445 107.564C137.445 109.127 138.168 110.436 139.613 111.49C141.059 112.525 143.441 113.541 146.762 114.537C150.082 115.514 152.748 116.637 154.76 117.906C156.771 119.156 158.246 120.602 159.184 122.242C160.121 123.863 160.59 125.768 160.59 127.955C160.59 131.51 159.223 134.342 156.488 136.451C153.773 138.541 150.082 139.586 145.414 139.586C142.328 139.586 139.486 139.02 136.889 137.887C134.311 136.734 132.299 135.152 130.854 133.141C129.428 131.129 128.715 128.785 128.715 126.109H136.127C136.127 128.531 136.928 130.406 138.529 131.734C140.131 133.062 142.426 133.727 145.414 133.727C147.992 133.727 149.926 133.209 151.215 132.174C152.523 131.119 153.178 129.732 153.178 128.014ZM189.389 128.014C189.389 126.139 188.725 124.693 187.396 123.678C186.088 122.662 183.715 121.637 180.277 120.602C176.84 119.566 174.105 118.414 172.074 117.145C168.188 114.703 166.244 111.52 166.244 107.594C166.244 104.156 167.641 101.324 170.434 99.0977C173.246 96.8711 176.889 95.7578 181.361 95.7578C184.33 95.7578 186.977 96.3047 189.301 97.3984C191.625 98.4922 193.451 100.055 194.779 102.086C196.107 104.098 196.771 106.334 196.771 108.795H189.389C189.389 106.568 188.686 104.83 187.279 103.58C185.893 102.311 183.9 101.676 181.303 101.676C178.881 101.676 176.996 102.193 175.648 103.229C174.32 104.264 173.656 105.709 173.656 107.564C173.656 109.127 174.379 110.436 175.824 111.49C177.27 112.525 179.652 113.541 182.973 114.537C186.293 115.514 188.959 116.637 190.971 117.906C192.982 119.156 194.457 120.602 195.395 122.242C196.332 123.863 196.801 125.768 196.801 127.955C196.801 131.51 195.434 134.342 192.699 136.451C189.984 138.541 186.293 139.586 181.625 139.586C178.539 139.586 175.697 139.02 173.1 137.887C170.521 136.734 168.51 135.152 167.064 133.141C165.639 131.129 164.926 128.785 164.926 126.109H172.338C172.338 128.531 173.139 130.406 174.74 131.734C176.342 133.062 178.637 133.727 181.625 133.727C184.203 133.727 186.137 133.209 187.426 132.174C188.734 131.119 189.389 129.732 189.389 128.014Z"
    fill="#272727"/>
</svg>
