<svg width="200" height="200" viewBox="0 0 200 200" fill="none" xmlns="http://www.w3.org/2000/svg">
  <rect width="200" height="200" rx="100" fill="#272727"/>
  <path
    d="M100.168 62.4512C94.7005 60.8796 90.7161 58.9538 88.2148 56.6738C85.7357 54.3717 84.4961 51.5384 84.4961 48.1738C84.4961 44.3665 86.0124 41.2233 89.0449 38.7441C92.0996 36.2428 96.0618 34.9922 100.932 34.9922C104.252 34.9922 107.207 35.6341 109.797 36.918C112.409 38.2018 114.423 39.9727 115.84 42.2305C117.279 44.4883 117.998 46.9564 117.998 49.6348H111.59C111.59 46.7129 110.66 44.4219 108.801 42.7617C106.941 41.0794 104.318 40.2383 100.932 40.2383C97.7884 40.2383 95.3314 40.9355 93.5605 42.3301C91.8118 43.7025 90.9375 45.6172 90.9375 48.0742C90.9375 50.0443 91.7676 51.7155 93.4277 53.0879C95.11 54.4382 97.9544 55.6777 101.961 56.8066C105.99 57.9355 109.133 59.1862 111.391 60.5586C113.671 61.9089 115.353 63.4915 116.438 65.3066C117.544 67.1217 118.098 69.2578 118.098 71.7148C118.098 75.6328 116.57 78.776 113.516 81.1445C110.461 83.4909 106.377 84.6641 101.264 84.6641C97.9434 84.6641 94.8444 84.0332 91.9668 82.7715C89.0892 81.4876 86.8646 79.7389 85.293 77.5254C83.7435 75.3118 82.9688 72.7995 82.9688 69.9883H89.377C89.377 72.9102 90.4505 75.2233 92.5977 76.9277C94.7669 78.61 97.6556 79.4512 101.264 79.4512C104.628 79.4512 107.207 78.765 109 77.3926C110.793 76.0202 111.689 74.1497 111.689 71.7812C111.689 69.4128 110.859 67.5866 109.199 66.3027C107.539 64.9967 104.529 63.7129 100.168 62.4512ZM46.7747 130.383H26.5208L21.972 143H15.3977L33.8587 94.6562H39.4368L57.9309 143H51.3899L46.7747 130.383ZM28.4466 125.137H44.8821L36.6477 102.525L28.4466 125.137ZM100.621 127.66C100.023 132.773 98.1306 136.725 94.9431 139.514C91.7778 142.281 87.561 143.664 82.2927 143.664C76.5818 143.664 71.9998 141.617 68.5466 137.521C65.1157 133.426 63.4002 127.948 63.4002 121.086V116.438C63.4002 111.944 64.197 107.993 65.7908 104.584C67.4067 101.175 69.6866 98.5632 72.6306 96.748C75.5746 94.9108 78.9835 93.9922 82.8572 93.9922C87.9926 93.9922 92.1098 95.431 95.2088 98.3086C98.3077 101.164 100.112 105.126 100.621 110.195H94.2127C93.6593 106.344 92.4529 103.555 90.5935 101.828C88.7563 100.102 86.1775 99.2383 82.8572 99.2383C78.7843 99.2383 75.5857 100.743 73.2615 103.754C70.9594 106.764 69.8084 111.048 69.8084 116.604V121.285C69.8084 126.531 70.9041 130.704 73.0955 133.803C75.2869 136.902 78.3526 138.451 82.2927 138.451C85.8344 138.451 88.546 137.654 90.4275 136.061C92.3311 134.445 93.5929 131.645 94.2127 127.66H100.621ZM124.617 121.451C119.15 119.88 115.166 117.954 112.664 115.674C110.185 113.372 108.946 110.538 108.946 107.174C108.946 103.367 110.462 100.223 113.494 97.7441C116.549 95.2428 120.511 93.9922 125.381 93.9922C128.701 93.9922 131.656 94.6341 134.246 95.918C136.858 97.2018 138.873 98.9727 140.289 101.23C141.728 103.488 142.448 105.956 142.448 108.635H136.039C136.039 105.713 135.11 103.422 133.25 101.762C131.391 100.079 128.768 99.2383 125.381 99.2383C122.238 99.2383 119.781 99.9355 118.01 101.33C116.261 102.702 115.387 104.617 115.387 107.074C115.387 109.044 116.217 110.715 117.877 112.088C119.559 113.438 122.404 114.678 126.41 115.807C130.439 116.936 133.582 118.186 135.84 119.559C138.12 120.909 139.802 122.492 140.887 124.307C141.994 126.122 142.547 128.258 142.547 130.715C142.547 134.633 141.02 137.776 137.965 140.145C134.91 142.491 130.826 143.664 125.713 143.664C122.393 143.664 119.294 143.033 116.416 141.771C113.539 140.488 111.314 138.739 109.742 136.525C108.193 134.312 107.418 131.799 107.418 128.988H113.826C113.826 131.91 114.9 134.223 117.047 135.928C119.216 137.61 122.105 138.451 125.713 138.451C129.078 138.451 131.656 137.765 133.449 136.393C135.242 135.02 136.139 133.15 136.139 130.781C136.139 128.413 135.309 126.587 133.649 125.303C131.989 123.997 128.978 122.713 124.617 121.451ZM166.012 121.451C160.545 119.88 156.561 117.954 154.059 115.674C151.58 113.372 150.341 110.538 150.341 107.174C150.341 103.367 151.857 100.223 154.889 97.7441C157.944 95.2428 161.906 93.9922 166.776 93.9922C170.096 93.9922 173.051 94.6341 175.641 95.918C178.253 97.2018 180.268 98.9727 181.684 101.23C183.123 103.488 183.842 105.956 183.842 108.635H177.434C177.434 105.713 176.505 103.422 174.645 101.762C172.786 100.079 170.163 99.2383 166.776 99.2383C163.633 99.2383 161.176 99.9355 159.405 101.33C157.656 102.702 156.782 104.617 156.782 107.074C156.782 109.044 157.612 110.715 159.272 112.088C160.954 113.438 163.799 114.678 167.805 115.807C171.834 116.936 174.977 118.186 177.235 119.559C179.515 120.909 181.197 122.492 182.282 124.307C183.389 126.122 183.942 128.258 183.942 130.715C183.942 134.633 182.415 137.776 179.36 140.145C176.305 142.491 172.221 143.664 167.108 143.664C163.788 143.664 160.689 143.033 157.811 141.771C154.934 140.488 152.709 138.739 151.137 136.525C149.588 134.312 148.813 131.799 148.813 128.988H155.221C155.221 131.91 156.295 134.223 158.442 135.928C160.611 137.61 163.5 138.451 167.108 138.451C170.473 138.451 173.051 137.765 174.844 136.393C176.637 135.02 177.534 133.15 177.534 130.781C177.534 128.413 176.704 126.587 175.044 125.303C173.384 123.997 170.373 122.713 166.012 121.451Z"
    fill="url(#paint0_linear)"/>
  <defs>
    <linearGradient id="paint0_linear" x1="32.1047" y1="22.2128" x2="198.245" y2="63.7096" gradientUnits="userSpaceOnUse">
      <stop stop-color="#03DEFC"/>
      <stop offset="1" stop-color="#FA27E5"/>
    </linearGradient>
  </defs>
</svg>
